<svg width="561" height="437" viewBox="0 0 561 437" fill="none" xmlns="http://www.w3.org/2000/svg"><g filter="url(#filter0_d)"><rect x="82.141" y="33.711" width="396.718" height="341.289" rx="18.873" fill="#fff"/></g><rect x="123.09" y="124.483" width="314.606" height="51.008" rx="7.443" stroke="#E1E3E9" stroke-width="1.887"/><path d="M147.618 158.29h8.441v-1.779h-6.377v-4.137h6.036v-1.714h-6.036v-3.889h6.377v-1.779h-8.441v13.298zm10.63 0h2v-5.87c0-1.613.912-2.617 2.377-2.617 1.465 0 2.156.82 2.156 2.479v6.008h1.991v-6.478c0-2.387-1.235-3.723-3.474-3.723-1.456 0-2.415.645-2.903 1.714h-.147v-1.521h-2v10.008zm14.528.064c.387 0 .756-.046 1.078-.101v-1.594a6.722 6.722 0 01-.755.037c-.986 0-1.392-.443-1.392-1.521v-5.317h2.147v-1.576h-2.147v-2.525h-2.036v2.525h-1.567v1.576h1.567v5.796c0 1.926.903 2.7 3.105 2.7zm6.935.129c2.562 0 3.944-1.474 4.276-2.792l.018-.083-1.926.01-.036.073c-.24.516-1.005 1.152-2.286 1.152-1.649 0-2.7-1.115-2.737-3.032h7.096v-.7c0-3.004-1.714-5.022-4.506-5.022-2.792 0-4.599 2.092-4.599 5.216v.009c0 3.17 1.77 5.169 4.7 5.169zm-.092-8.754c1.355 0 2.359.866 2.516 2.654h-5.087c.175-1.723 1.207-2.654 2.571-2.654zm6.308 8.561h2v-5.981c0-1.446 1.041-2.386 2.571-2.386.378 0 .719.046 1.078.119v-1.843a4.404 4.404 0 00-.875-.092c-1.336 0-2.267.627-2.627 1.687h-.147v-1.512h-2v10.008zm15.787.193c2.562 0 3.944-1.474 4.276-2.792l.018-.083-1.926.01-.037.073c-.239.516-1.004 1.152-2.285 1.152-1.649 0-2.7-1.115-2.737-3.032h7.096v-.7c0-3.004-1.714-5.022-4.506-5.022-2.793 0-4.599 2.092-4.599 5.216v.009c0 3.17 1.77 5.169 4.7 5.169zm-.092-8.754c1.354 0 2.359.866 2.516 2.654h-5.087c.175-1.723 1.207-2.654 2.571-2.654zm6.308 8.561h2v-6.147c0-1.308.894-2.34 2.101-2.34 1.179 0 1.926.719 1.926 1.861v6.626h1.99v-6.331c0-1.207.839-2.156 2.111-2.156 1.308 0 1.935.682 1.935 2.064v6.423h1.99v-6.902c0-2.083-1.179-3.299-3.197-3.299-1.392 0-2.544.709-3.051 1.787h-.156c-.443-1.078-1.41-1.787-2.774-1.787-1.309 0-2.285.636-2.728 1.732h-.147v-1.539h-2v10.008zm19.025.166c1.327 0 2.378-.572 2.968-1.585h.156v1.419h1.982v-6.847c0-2.101-1.42-3.354-3.935-3.354-2.276 0-3.852 1.096-4.092 2.737l-.009.064h1.926l.009-.037c.24-.709.968-1.115 2.074-1.115 1.354 0 2.045.608 2.045 1.705v.885l-2.709.156c-2.387.148-3.732 1.189-3.732 2.977v.018c0 1.816 1.41 2.977 3.317 2.977zm-1.327-3.06v-.018c0-.903.627-1.401 2.009-1.484l2.442-.156v.857c0 1.29-1.096 2.267-2.589 2.267-1.078 0-1.862-.544-1.862-1.466zm9.728-8.901a1.26 1.26 0 001.253-1.245 1.26 1.26 0 00-1.253-1.253c-.692 0-1.254.562-1.254 1.253 0 .682.562 1.245 1.254 1.245zm-1.005 11.795h1.991v-10.008h-1.991v10.008zm4.429 0h1.999v-13.933h-1.999v13.933zm11.75.166c1.327 0 2.377-.572 2.967-1.585h.157v1.419h1.981v-6.847c0-2.101-1.419-3.354-3.935-3.354-2.276 0-3.852 1.096-4.091 2.737l-.009.064h1.925l.01-.037c.239-.709.967-1.115 2.073-1.115 1.355 0 2.046.608 2.046 1.705v.885l-2.709.156c-2.387.148-3.733 1.189-3.733 2.977v.018c0 1.816 1.41 2.977 3.318 2.977zm-1.327-3.06v-.018c0-.903.627-1.401 2.009-1.484l2.442-.156v.857c0 1.29-1.097 2.267-2.59 2.267-1.078 0-1.861-.544-1.861-1.466zm12.335 3.06c1.401 0 2.497-.645 3.078-1.742h.157v1.576h1.99v-13.933h-1.99v5.51h-.157c-.535-1.078-1.705-1.76-3.078-1.76-2.543 0-4.147 2-4.147 5.17v.018c0 3.143 1.631 5.161 4.147 5.161zm.571-1.705c-1.677 0-2.681-1.309-2.681-3.456v-.018c0-2.147 1.004-3.456 2.681-3.456 1.659 0 2.691 1.318 2.691 3.456v.018c0 2.138-1.023 3.456-2.691 3.456zm10.714 1.705c1.4 0 2.497-.645 3.077-1.742h.157v1.576h1.991v-13.933h-1.991v5.51h-.157c-.534-1.078-1.704-1.76-3.077-1.76-2.544 0-4.147 2-4.147 5.17v.018c0 3.143 1.631 5.161 4.147 5.161zm.571-1.705c-1.677 0-2.682-1.309-2.682-3.456v-.018c0-2.147 1.005-3.456 2.682-3.456 1.659 0 2.691 1.318 2.691 3.456v.018c0 2.138-1.023 3.456-2.691 3.456zm7.064 1.539h2v-5.981c0-1.446 1.041-2.386 2.571-2.386.377 0 .718.046 1.078.119v-1.843a4.406 4.406 0 00-.876-.092c-1.336 0-2.267.627-2.626 1.687h-.147v-1.512h-2v10.008zm10.934.193c2.562 0 3.944-1.474 4.276-2.792l.018-.083-1.926.01-.036.073c-.24.516-1.005 1.152-2.286 1.152-1.649 0-2.7-1.115-2.737-3.032h7.096v-.7c0-3.004-1.714-5.022-4.506-5.022-2.792 0-4.599 2.092-4.599 5.216v.009c0 3.17 1.77 5.169 4.7 5.169zm-.092-8.754c1.355 0 2.359.866 2.516 2.654h-5.087c.175-1.723 1.207-2.654 2.571-2.654zm9.948 8.754c2.378 0 4.147-1.262 4.147-3.114v-.019c0-1.446-.921-2.267-2.847-2.718l-1.585-.36c-1.125-.267-1.585-.654-1.585-1.28v-.019c0-.802.792-1.345 1.889-1.345 1.124 0 1.834.525 2.027 1.225v.019h1.908v-.009c-.175-1.632-1.641-2.774-3.926-2.774-2.267 0-3.889 1.253-3.889 2.995v.009c0 1.465.876 2.322 2.765 2.755l1.594.369c1.161.267 1.631.691 1.631 1.318v.018c0 .82-.857 1.382-2.092 1.382-1.189 0-1.917-.507-2.165-1.262l-.01-.009h-1.999v.009c.193 1.677 1.723 2.81 4.137 2.81zm9.423 0c2.378 0 4.147-1.262 4.147-3.114v-.019c0-1.446-.921-2.267-2.847-2.718l-1.585-.36c-1.125-.267-1.585-.654-1.585-1.28v-.019c0-.802.792-1.345 1.889-1.345 1.124 0 1.834.525 2.027 1.225v.019h1.908v-.009c-.175-1.632-1.641-2.774-3.926-2.774-2.267 0-3.889 1.253-3.889 2.995v.009c0 1.465.876 2.322 2.765 2.755l1.594.369c1.161.267 1.631.691 1.631 1.318v.018c0 .82-.857 1.382-2.092 1.382-1.189 0-1.917-.507-2.165-1.262l-.01-.009h-1.999v.009c.193 1.677 1.723 2.81 4.137 2.81z" fill="#CCC"/><g filter="url(#filter1_d)"><path fill-rule="evenodd" clip-rule="evenodd" d="M398.672 179.375a13.197 13.197 0 01-10.875 5.721H74.867c-7.816 0-14.154 6.337-14.154 14.154v109.22c0 7.818 6.338 14.155 14.155 14.155h412.127c7.818 0 14.155-6.337 14.155-14.155V199.25c0-7.817-6.337-14.154-14.155-14.154h-55.699c-4.345 0-8.412-2.14-10.874-5.721-5.244-7.628-16.506-7.628-21.75 0z" fill="#fff"/></g><path d="M158.06 267.044h3.34v-13.203h4.788v-2.754h-12.916v2.754h4.788v13.203zm11.662 0h3.384l2.156-8.493h.199l2.179 8.493h3.428l3.24-12.175h-3.196l-1.814 8.813h-.199l-2.145-8.813h-3.074l-2.134 8.813h-.199l-1.814-8.813h-3.262l3.251 12.175zM187.576 253c.995 0 1.814-.796 1.814-1.791a1.806 1.806 0 00-1.814-1.803c-.995 0-1.825.797-1.825 1.803 0 .995.83 1.791 1.825 1.791zm-1.625 14.044h3.229v-12.175h-3.229v12.175zm10.854.044c.619 0 1.216-.066 1.614-.143v-2.4a7.637 7.637 0 01-.951.055c-1.094 0-1.559-.486-1.559-1.581v-5.717h2.51v-2.433h-2.51v-2.908h-3.262v2.908h-1.88v2.433h1.88v6.458c0 2.366 1.194 3.328 4.158 3.328zm8.786 0c.619 0 1.217-.066 1.615-.143v-2.4a7.65 7.65 0 01-.951.055c-1.095 0-1.56-.486-1.56-1.581v-5.717h2.511v-2.433h-2.511v-2.908h-3.262v2.908h-1.88v2.433h1.88v6.458c0 2.366 1.195 3.328 4.158 3.328zm8.886.211c3.561 0 5.131-2.057 5.507-3.583l.022-.111h-3.008l-.033.066c-.221.465-1.006 1.217-2.422 1.217-1.714 0-2.786-1.161-2.819-3.163h8.382v-1.006c0-3.682-2.212-6.115-5.762-6.115-3.549 0-5.816 2.488-5.816 6.358v.011c0 3.904 2.245 6.326 5.949 6.326zm-.077-10.274c1.404 0 2.41.907 2.609 2.677h-5.252c.199-1.726 1.238-2.677 2.643-2.677zm7.669 10.019h3.229v-6.812c0-1.725 1.161-2.775 2.997-2.775.498 0 .995.077 1.482.188v-2.82a4.813 4.813 0 00-1.206-.155c-1.581 0-2.687.774-3.074 2.09h-.199v-1.891h-3.229v12.175zm9.561.277c1.139 0 1.946-.83 1.946-1.924 0-1.095-.807-1.914-1.946-1.914-1.128 0-1.947.819-1.947 1.914 0 1.094.819 1.924 1.947 1.924zm9.792-.022c3.174 0 5.076-1.703 5.408-4.357l.011-.067h-2.986l-.022.044c-.287 1.217-1.073 1.847-2.4 1.847-1.725 0-2.687-1.36-2.687-3.826v-.022c0-2.433.951-3.782 2.687-3.782 1.383 0 2.19.774 2.4 1.957l.011.022h3.008v-.033c-.288-2.72-2.201-4.478-5.43-4.478-3.815 0-5.96 2.311-5.96 6.314v.022c0 4.047 2.156 6.359 5.96 6.359zm12.679 0c3.749 0 6.005-2.367 6.005-6.337v-.022c0-3.937-2.289-6.336-6.005-6.336-3.715 0-6.004 2.41-6.004 6.336v.022c0 3.959 2.256 6.337 6.004 6.337zm0-2.533c-1.725 0-2.698-1.404-2.698-3.804v-.022c0-2.377.984-3.804 2.698-3.804 1.703 0 2.698 1.427 2.698 3.804v.022c0 2.4-.984 3.804-2.698 3.804zm7.957 2.278h3.229v-7.342c0-1.394.885-2.422 2.146-2.422 1.26 0 2.001.763 2.001 2.068v7.696h3.229v-7.486c0-1.316.841-2.278 2.145-2.278 1.349 0 2.013.741 2.013 2.211v7.553h3.229v-8.36c0-2.51-1.515-4.08-3.937-4.08-1.703 0-3.118.895-3.671 2.245h-.199c-.498-1.405-1.725-2.245-3.384-2.245-1.592 0-2.853.796-3.373 2.167h-.199v-1.902h-3.229v12.175zM83.08 214.557h8.478v-2h-6.1v-11.298H83.08v13.298zm14.123.202c3.013 0 4.847-1.972 4.847-5.234v-.018c0-3.244-1.843-5.216-4.847-5.216-2.995 0-4.848 1.981-4.848 5.216v.018c0 3.262 1.825 5.234 4.847 5.234zm0-1.861c-1.595 0-2.507-1.244-2.507-3.364v-.018c0-2.12.912-3.373 2.507-3.373 1.584 0 2.497 1.253 2.497 3.373v.018c0 2.12-.903 3.364-2.498 3.364zm10.915 5.197c2.94 0 4.802-1.465 4.802-3.787v-9.824h-2.295v1.659h-.12c-.571-1.143-1.659-1.825-3.05-1.825-2.599 0-4.184 2.009-4.184 4.921v.019c0 2.857 1.585 4.829 4.138 4.829 1.391 0 2.488-.59 3.069-1.668h.156v1.926c0 1.29-.912 2.018-2.479 2.018-1.281 0-2.045-.452-2.202-1.097l-.009-.028h-2.295l-.009.028c.23 1.696 1.824 2.829 4.478 2.829zm0-5.833c-1.594 0-2.497-1.226-2.497-3.004v-.019c0-1.778.903-3.013 2.497-3.013 1.585 0 2.553 1.235 2.553 3.013v.019c0 1.778-.958 3.004-2.553 3.004zm12.691-9.464a1.36 1.36 0 001.364-1.355c0-.746-.618-1.354-1.364-1.354-.756 0-1.373.608-1.373 1.354a1.36 1.36 0 001.373 1.355zm-1.152 11.759h2.294v-10.073h-2.294v10.073zm4.548 0h2.295v-5.871c0-1.511.848-2.469 2.211-2.469 1.392 0 2.028.792 2.028 2.359v5.981h2.294v-6.516c0-2.396-1.225-3.75-3.474-3.75-1.456 0-2.423.654-2.903 1.732h-.156v-1.539h-2.295v10.073zm17.353 0h2.378l1.954-7.299h.156l1.963 7.299h2.405l2.728-10.073h-2.276l-1.668 7.566h-.157l-1.954-7.566h-2.183l-1.936 7.566h-.156l-1.677-7.566h-2.304l2.727 10.073zm14.197-11.759a1.36 1.36 0 001.364-1.355c0-.746-.618-1.354-1.364-1.354-.756 0-1.373.608-1.373 1.354a1.36 1.36 0 001.373 1.355zm-1.152 11.759h2.295v-10.073h-2.295v10.073zm8.511.046a6.49 6.49 0 001.198-.102v-1.769a6.64 6.64 0 01-.774.037c-.959 0-1.355-.424-1.355-1.429v-5.077h2.129v-1.779h-2.129v-2.469h-2.331v2.469h-1.567v1.779h1.567v5.621c0 1.945.949 2.719 3.262 2.719zm3.009-.046h2.295v-5.871c0-1.511.847-2.469 2.211-2.469 1.392 0 2.028.792 2.028 2.359v5.981h2.294v-6.516c0-2.396-1.225-3.75-3.474-3.75-1.456 0-2.424.654-2.903 1.732h-.156v-5.437h-2.295v13.971zm12.676.184c.848 0 1.465-.636 1.465-1.456s-.617-1.456-1.465-1.456c-.839 0-1.465.636-1.465 1.456s.626 1.456 1.465 1.456zm5.645 0c.848 0 1.465-.636 1.465-1.456s-.617-1.456-1.465-1.456c-.839 0-1.465.636-1.465 1.456s.626 1.456 1.465 1.456zm5.645 0c.848 0 1.465-.636 1.465-1.456s-.617-1.456-1.465-1.456c-.839 0-1.465.636-1.465 1.456s.626 1.456 1.465 1.456z" fill="#161921"/><path d="M154.715 281.223c.691 0 1.254-.562 1.254-1.244a1.254 1.254 0 00-2.507 0c0 .682.562 1.244 1.253 1.244zm-2.248 15.224c2.175 0 3.244-.94 3.244-2.995v-10.441h-1.991v10.431c0 1.005-.396 1.355-1.419 1.355h-.276v1.64c.119 0 .294.01.442.01zm9.838-3.235c2.93 0 4.727-1.963 4.727-5.188v-.018c0-3.226-1.806-5.189-4.727-5.189-2.931 0-4.737 1.972-4.737 5.189v.018c0 3.225 1.797 5.188 4.737 5.188zm0-1.668c-1.724 0-2.691-1.299-2.691-3.52v-.018c0-2.221.967-3.521 2.691-3.521 1.714 0 2.69 1.3 2.69 3.521v.018c0 2.212-.976 3.52-2.69 3.52zm6.64 1.475h1.999v-5.871c0-1.612.913-2.617 2.378-2.617s2.156.821 2.156 2.479v6.009h1.991v-6.479c0-2.386-1.235-3.723-3.474-3.723-1.456 0-2.415.645-2.903 1.714h-.148v-5.446h-1.999v13.934zm10.75 0h1.999v-5.871c0-1.612.913-2.617 2.378-2.617s2.156.821 2.156 2.479v6.009h1.991v-6.479c0-2.386-1.235-3.723-3.474-3.723-1.456 0-2.415.645-2.903 1.714h-.148v-1.52h-1.999v10.008zm12.289.138c.764 0 1.345-.59 1.345-1.336 0-.756-.581-1.346-1.345-1.346-.765 0-1.355.59-1.355 1.346 0 .746.59 1.336 1.355 1.336zm7.488.055c2.377 0 4.146-1.262 4.146-3.115v-.018c0-1.447-.921-2.267-2.847-2.719l-1.585-.359c-1.124-.267-1.585-.654-1.585-1.281v-.018c0-.802.792-1.346 1.889-1.346 1.124 0 1.834.526 2.027 1.226v.018h1.908v-.009c-.175-1.631-1.64-2.774-3.926-2.774-2.267 0-3.889 1.254-3.889 2.995v.01c0 1.465.876 2.322 2.765 2.755l1.594.368c1.161.268 1.631.692 1.631 1.318v.019c0 .82-.857 1.382-2.092 1.382-1.188 0-1.916-.507-2.165-1.263l-.009-.009h-2v.009c.193 1.678 1.723 2.811 4.138 2.811zm5.967-.193h2v-6.147c0-1.309.893-2.341 2.101-2.341 1.179 0 1.926.719 1.926 1.862v6.626h1.99v-6.331c0-1.207.839-2.157 2.11-2.157 1.309 0 1.936.682 1.936 2.065v6.423h1.99v-6.903c0-2.082-1.18-3.299-3.198-3.299-1.391 0-2.543.71-3.05 1.788h-.157c-.442-1.078-1.409-1.788-2.773-1.788-1.309 0-2.286.636-2.728 1.733h-.147v-1.539h-2v10.008zm17.32-11.796a1.26 1.26 0 001.254-1.244c0-.691-.572-1.253-1.254-1.253-.691 0-1.253.562-1.253 1.253 0 .682.562 1.244 1.253 1.244zm-1.004 11.796h1.99v-10.008h-1.99v10.008zm8.114.064c.387 0 .756-.046 1.079-.101v-1.595a6.522 6.522 0 01-.756.037c-.986 0-1.392-.442-1.392-1.52v-5.317h2.148v-1.576H228.8v-2.525h-2.036v2.525h-1.567v1.576h1.567v5.796c0 1.926.903 2.7 3.105 2.7zm2.936-.064h2v-5.871c0-1.612.912-2.617 2.377-2.617 1.465 0 2.156.821 2.156 2.479v6.009h1.991v-6.479c0-2.386-1.235-3.723-3.474-3.723-1.456 0-2.415.645-2.903 1.714h-.147v-5.446h-2v13.934zm18.408 2.101c1.096 0 2.147-.148 2.939-.406v-1.281c-.552.249-1.714.406-2.875.406-3.935 0-6.46-2.479-6.46-6.34v-.019c0-3.778 2.553-6.46 6.138-6.46 3.621 0 6.073 2.24 6.073 5.566v.019c0 2.119-.692 3.492-1.779 3.492-.627 0-.977-.377-.977-1.023v-5.234h-1.566v1.115h-.157c-.359-.811-1.18-1.299-2.147-1.299-1.88 0-3.17 1.548-3.17 3.778v.019c0 2.331 1.281 3.898 3.197 3.898 1.079 0 1.88-.507 2.267-1.447h.157l.009.055c.175.885.996 1.456 2.083 1.456 2.156 0 3.52-1.88 3.52-4.856v-.019c0-4.008-3.032-6.791-7.409-6.791-4.552 0-7.676 3.124-7.676 7.676v.018c0 4.672 3.059 7.677 7.833 7.677zm-.489-5.207c-1.115 0-1.797-.921-1.797-2.414v-.019c0-1.511.673-2.414 1.816-2.414 1.152 0 1.889.94 1.889 2.414v.019c0 1.474-.737 2.414-1.908 2.414zm9.663 3.106h2v-5.871c0-1.612.912-2.617 2.377-2.617 1.465 0 2.157.821 2.157 2.479v6.009h1.99v-6.479c0-2.386-1.235-3.723-3.474-3.723-1.456 0-2.414.645-2.903 1.714h-.147v-1.52h-2v10.008zm14.989.193c2.93 0 4.727-1.963 4.727-5.188v-.018c0-3.226-1.806-5.189-4.727-5.189-2.93 0-4.737 1.972-4.737 5.189v.018c0 3.225 1.797 5.188 4.737 5.188zm0-1.668c-1.723 0-2.691-1.299-2.691-3.52v-.018c0-2.221.968-3.521 2.691-3.521 1.714 0 2.691 1.3 2.691 3.521v.018c0 2.212-.977 3.52-2.691 3.52zm6.548 1.475h2v-5.981c0-1.447 1.041-2.387 2.571-2.387.377 0 .718.046 1.078.12v-1.843a4.406 4.406 0 00-.876-.092c-1.336 0-2.267.626-2.626 1.686h-.147v-1.511h-2v10.008zm10.381.165c1.401 0 2.498-.645 3.078-1.741h.157v1.576h1.99v-13.934h-1.99v5.511h-.157c-.534-1.078-1.705-1.76-3.078-1.76-2.543 0-4.146 1.999-4.146 5.17v.018c0 3.142 1.631 5.16 4.146 5.16zm.572-1.704c-1.677 0-2.682-1.309-2.682-3.456v-.018c0-2.148 1.005-3.456 2.682-3.456 1.658 0 2.691 1.318 2.691 3.456v.018c0 2.138-1.023 3.456-2.691 3.456zm7.064 4.874h1.999v-4.92h.148c.534 1.078 1.705 1.75 3.078 1.75 2.543 0 4.146-1.99 4.146-5.16v-.018c0-3.152-1.621-5.17-4.146-5.17-1.401 0-2.498.654-3.078 1.751h-.148v-1.576h-1.999v13.343zm4.663-4.874c-1.668 0-2.7-1.318-2.7-3.456v-.018c0-2.138 1.032-3.456 2.7-3.456 1.667 0 2.672 1.299 2.672 3.456v.018c0 2.147-1.005 3.456-2.672 3.456zm9.294 1.704c1.327 0 2.377-.571 2.967-1.585h.157v1.42h1.981v-6.847c0-2.101-1.419-3.355-3.935-3.355-2.276 0-3.852 1.097-4.092 2.737l-.009.065h1.926l.009-.037c.24-.71.968-1.115 2.074-1.115 1.354 0 2.046.608 2.046 1.705v.884l-2.71.157c-2.386.147-3.732 1.189-3.732 2.977v.018c0 1.815 1.41 2.976 3.318 2.976zm-1.327-3.059v-.018c0-.904.626-1.401 2.009-1.484l2.442-.157v.857c0 1.29-1.097 2.267-2.59 2.267-1.078 0-1.861-.543-1.861-1.465zm12.325 3.087c2.378 0 4.147-1.262 4.147-3.115v-.018c0-1.447-.921-2.267-2.847-2.719l-1.585-.359c-1.124-.267-1.585-.654-1.585-1.281v-.018c0-.802.792-1.346 1.889-1.346 1.124 0 1.834.526 2.027 1.226v.018h1.908v-.009c-.175-1.631-1.641-2.774-3.926-2.774-2.267 0-3.889 1.254-3.889 2.995v.01c0 1.465.876 2.322 2.765 2.755l1.594.368c1.161.268 1.631.692 1.631 1.318v.019c0 .82-.857 1.382-2.092 1.382-1.188 0-1.916-.507-2.165-1.263l-.009-.009h-2v.009c.193 1.678 1.723 2.811 4.137 2.811zm9.423 0c2.378 0 4.147-1.262 4.147-3.115v-.018c0-1.447-.921-2.267-2.847-2.719l-1.585-.359c-1.124-.267-1.585-.654-1.585-1.281v-.018c0-.802.792-1.346 1.889-1.346 1.124 0 1.834.526 2.027 1.226v.018h1.908v-.009c-.175-1.631-1.641-2.774-3.926-2.774-2.267 0-3.889 1.254-3.889 2.995v.01c0 1.465.876 2.322 2.765 2.755l1.594.368c1.161.268 1.631.692 1.631 1.318v.019c0 .82-.857 1.382-2.092 1.382-1.188 0-1.916-.507-2.165-1.263l-.009-.009h-2v.009c.193 1.678 1.723 2.811 4.137 2.811zm7.507-.055c.765 0 1.345-.59 1.345-1.336 0-.756-.58-1.346-1.345-1.346s-1.355.59-1.355 1.346c0 .746.59 1.336 1.355 1.336zm7.69.055c2.479 0 3.908-1.336 4.267-3.281l.018-.082h-1.916l-.019.046c-.322 1.078-1.096 1.649-2.35 1.649-1.649 0-2.672-1.345-2.672-3.557v-.018c0-2.157 1.004-3.484 2.672-3.484 1.327 0 2.138.738 2.359 1.724l.01.027 1.916-.009v-.046c-.276-1.944-1.778-3.364-4.294-3.364-2.921 0-4.7 1.982-4.7 5.152v.018c0 3.235 1.788 5.225 4.709 5.225zm10.225 0c2.931 0 4.728-1.963 4.728-5.188v-.018c0-3.226-1.807-5.189-4.728-5.189-2.93 0-4.736 1.972-4.736 5.189v.018c0 3.225 1.797 5.188 4.736 5.188zm0-1.668c-1.723 0-2.691-1.299-2.691-3.52v-.018c0-2.221.968-3.521 2.691-3.521 1.714 0 2.691 1.3 2.691 3.521v.018c0 2.212-.977 3.52-2.691 3.52zm6.548 1.475h2v-6.147c0-1.309.894-2.341 2.101-2.341 1.179 0 1.926.719 1.926 1.862v6.626h1.99v-6.331c0-1.207.839-2.157 2.111-2.157 1.308 0 1.935.682 1.935 2.065v6.423h1.99v-6.903c0-2.082-1.179-3.299-3.197-3.299-1.392 0-2.544.71-3.051 1.788h-.156c-.443-1.078-1.41-1.788-2.774-1.788-1.309 0-2.285.636-2.728 1.733h-.147v-1.539h-2v10.008z" fill="#ADADAD"/><mask id="a" maskUnits="userSpaceOnUse" x="82" y="245" width="52" height="52"><rect x="82.136" y="245.136" width="51.727" height="51.727" rx="12.932" fill="#C4C4C4"/></mask><g mask="url(#a)"><path fill="#319AFA" d="M82.136 245.136h51.727v51.727H82.136z"/><path fill-rule="evenodd" clip-rule="evenodd" d="M102.378 286.565c13.206 0 20.427-10.926 20.427-20.4 0-.31-.007-.619-.021-.927a14.564 14.564 0 003.581-3.713c-1.286.571-2.67.956-4.122 1.129a7.2 7.2 0 003.157-3.966 14.416 14.416 0 01-4.559 1.741 7.174 7.174 0 00-5.241-2.266c-3.964 0-7.179 3.211-7.179 7.169 0 .563.063 1.11.186 1.635a20.393 20.393 0 01-14.798-7.491 7.144 7.144 0 00-.972 3.604 7.163 7.163 0 003.194 5.968 7.123 7.123 0 01-3.251-.897l-.001.092c0 3.472 2.475 6.371 5.76 7.028a7.167 7.167 0 01-3.243.123 7.185 7.185 0 006.707 4.98 14.412 14.412 0 01-8.917 3.069c-.579 0-1.15-.033-1.712-.099a20.341 20.341 0 0011.005 3.221" fill="#fff"/></g><path fill="#EAEAEA" d="M59.85 227.412h441.3v.882H59.85z"/><g filter="url(#filter2_d)"><circle cx="409.547" cy="149.987" r="19.395" fill="url(#paint0_linear)"/></g><path fill-rule="evenodd" clip-rule="evenodd" d="M398.126 158.461a14.248 14.248 0 01-2.685-8.352c0-7.857 6.316-14.227 14.106-14.227s14.105 6.37 14.105 14.227c0 3.12-.995 6.006-2.684 8.352l-6.775-11.097-.654 1.114.663 3.099-4.655-8.034-2.88 4.904.671 3.13-2.441-4.207-6.771 11.091z" fill="url(#paint1_linear)"/><path d="M195.435 94.931h10.439v-2.753h-7.1V78.975h-3.339v15.957zm17.323.255c3.749 0 6.005-2.367 6.005-6.337v-.022c0-3.936-2.289-6.336-6.005-6.336-3.716 0-6.005 2.41-6.005 6.336v.023c0 3.958 2.256 6.336 6.005 6.336zm0-2.533c-1.725 0-2.698-1.404-2.698-3.803v-.023c0-2.377.984-3.804 2.698-3.804 1.703 0 2.698 1.427 2.698 3.804v.023c0 2.4-.984 3.803-2.698 3.803zm13.331 6.558c3.683 0 6.016-1.802 6.016-4.656V82.756h-3.229v1.99h-.155c-.652-1.37-1.957-2.189-3.627-2.189-3.118 0-5.009 2.411-5.009 5.994v.022c0 3.461 1.891 5.828 4.954 5.828 1.692 0 2.974-.697 3.649-1.98h.199v2.267c0 1.416-1.006 2.223-2.731 2.223-1.438 0-2.278-.487-2.455-1.194l-.011-.045h-3.196v.056c.265 2.068 2.223 3.483 5.595 3.483zm.045-7.287c-1.748 0-2.743-1.36-2.743-3.362v-.022c0-2.002 1.006-3.362 2.743-3.362 1.736 0 2.786 1.36 2.786 3.362v.022c0 2.002-1.039 3.362-2.786 3.362zm15.328-11.036c.995 0 1.813-.797 1.813-1.792a1.805 1.805 0 00-1.813-1.802c-.996 0-1.825.796-1.825 1.802 0 .995.829 1.792 1.825 1.792zm-1.626 14.043h3.229V82.757h-3.229V94.93zm5.801 0h3.229v-7.043c0-1.648.906-2.72 2.399-2.72 1.526 0 2.234.906 2.234 2.62v7.144h3.229v-7.874c0-2.908-1.46-4.567-4.169-4.567-1.736 0-2.941.83-3.494 2.145h-.199v-1.88h-3.229v12.175zm23.754.045a8.98 8.98 0 001.614-.144v-2.4a7.6 7.6 0 01-.951.056c-1.094 0-1.559-.487-1.559-1.582V85.19h2.51v-2.432h-2.51v-2.909h-3.262v2.909h-1.88v2.432h1.88v6.458c0 2.367 1.194 3.329 4.158 3.329zm8.941.21c3.749 0 6.005-2.367 6.005-6.337v-.022c0-3.936-2.289-6.336-6.005-6.336-3.715 0-6.004 2.41-6.004 6.336v.023c0 3.958 2.255 6.336 6.004 6.336zm0-2.533c-1.725 0-2.698-1.404-2.698-3.803v-.023c0-2.377.984-3.804 2.698-3.804 1.703 0 2.698 1.427 2.698 3.804v.023c0 2.4-.984 3.803-2.698 3.803zm17.308 2.278h3.339V81.728h4.788v-2.753h-12.916v2.753h4.789v13.204zm11.661 0h3.384l2.156-8.492h.199l2.179 8.493h3.428l3.24-12.175h-3.196l-1.813 8.813h-.2l-2.145-8.813h-3.074l-2.134 8.813h-.199l-1.814-8.813h-3.262l3.251 12.174zm17.854-14.043c.995 0 1.814-.797 1.814-1.792a1.806 1.806 0 00-1.814-1.802c-.995 0-1.824.796-1.824 1.802 0 .995.829 1.792 1.824 1.792zM323.53 94.93h3.229V82.757h-3.229V94.93zm10.854.045a8.98 8.98 0 001.614-.144v-2.4a7.6 7.6 0 01-.951.056c-1.094 0-1.559-.487-1.559-1.582V85.19h2.51v-2.432h-2.51v-2.909h-3.262v2.909h-1.88v2.432h1.88v6.458c0 2.367 1.194 3.329 4.158 3.329zm8.786 0c.62 0 1.217-.067 1.615-.144v-2.4a7.44 7.44 0 01-.951.056c-1.095 0-1.559-.487-1.559-1.582V85.19h2.51v-2.432h-2.51v-2.909h-3.263v2.909h-1.879v2.432h1.879v6.458c0 2.367 1.195 3.329 4.158 3.329zm8.886.21c3.561 0 5.131-2.057 5.507-3.583l.022-.11h-3.007l-.034.066c-.221.464-1.006 1.216-2.421 1.216-1.714 0-2.787-1.16-2.82-3.163h8.382v-1.006c0-3.682-2.212-6.115-5.761-6.115-3.55 0-5.817 2.488-5.817 6.359v.01c0 3.904 2.245 6.326 5.949 6.326zm-.077-10.273c1.404 0 2.411.907 2.61 2.676h-5.253c.199-1.725 1.238-2.676 2.643-2.676zm7.669 10.019h3.229V88.12c0-1.725 1.161-2.776 2.997-2.776.498 0 .995.078 1.482.188v-2.82a4.84 4.84 0 00-1.205-.155c-1.582 0-2.688.775-3.075 2.09h-.199v-1.89h-3.229V94.93z" fill="#000"/><defs><filter id="filter0_d" x="34.959" y=".684" width="491.081" height="435.652" filterUnits="userSpaceOnUse" color-interpolation-filters="sRGB"><feFlood flood-opacity="0" result="BackgroundImageFix"/><feColorMatrix in="SourceAlpha" values="0 0 0 0 0 0 0 0 0 0 0 0 0 0 0 0 0 0 127 0"/><feOffset dy="14.155"/><feGaussianBlur stdDeviation="23.591"/><feColorMatrix values="0 0 0 0 0 0 0 0 0 0 0 0 0 0 0 0 0 0 0.15 0"/><feBlend in2="BackgroundImageFix" result="effect1_dropShadow"/><feBlend in="SourceGraphic" in2="effect1_dropShadow" result="shape"/></filter><filter id="filter1_d" x="22.968" y="154.782" width="515.927" height="224.461" filterUnits="userSpaceOnUse" color-interpolation-filters="sRGB"><feFlood flood-opacity="0" result="BackgroundImageFix"/><feColorMatrix in="SourceAlpha" values="0 0 0 0 0 0 0 0 0 0 0 0 0 0 0 0 0 0 127 0"/><feOffset dy="18.873"/><feGaussianBlur stdDeviation="18.873"/><feColorMatrix values="0 0 0 0 0 0 0 0 0 0 0 0 0 0 0 0 0 0 0.2 0"/><feBlend in2="BackgroundImageFix" result="effect1_dropShadow"/><feBlend in="SourceGraphic" in2="effect1_dropShadow" result="shape"/></filter><filter id="filter2_d" x="380.716" y="123.987" width="57.663" height="57.663" filterUnits="userSpaceOnUse" color-interpolation-filters="sRGB"><feFlood flood-opacity="0" result="BackgroundImageFix"/><feColorMatrix in="SourceAlpha" values="0 0 0 0 0 0 0 0 0 0 0 0 0 0 0 0 0 0 127 0"/><feOffset dy="2.831"/><feGaussianBlur stdDeviation="4.718"/><feColorMatrix values="0 0 0 0 0 0 0 0 0 0 0 0 0 0 0 0 0 0 0.25 0"/><feBlend in2="BackgroundImageFix" result="effect1_dropShadow"/><feBlend in="SourceGraphic" in2="effect1_dropShadow" result="shape"/></filter><linearGradient id="paint0_linear" x1="409.547" y1="130.592" x2="409.547" y2="169.383" gradientUnits="userSpaceOnUse"><stop stop-color="#FCFCFD"/><stop offset="1" stop-color="#EDF4F4"/></linearGradient><linearGradient id="paint1_linear" x1="409.547" y1="135.882" x2="409.547" y2="158.461" gradientUnits="userSpaceOnUse"><stop stop-color="#5DA2A0"/><stop offset="1" stop-color="#5996A1"/></linearGradient></defs></svg>